<svg width="37" height="37" viewBox="0 0 37 37" fill="none" xmlns="http://www.w3.org/2000/svg">
<path d="M33.1728 7.23242L19.0171 21.9362C18.641 22.3235 18.1273 22.5469 17.5876 22.5578C17.0478 22.5686 16.5255 22.3661 16.1342 21.9941L8.87149 15.0655C8.65276 14.8881 8.47305 14.6673 8.34361 14.4172C8.21416 14.167 8.13779 13.8928 8.11927 13.6118C8.10074 13.3307 8.14047 13.0489 8.23596 12.7839C8.33145 12.5189 8.48065 12.2765 8.67419 12.0719C8.86774 11.8673 9.10147 11.7049 9.36072 11.5948C9.61998 11.4847 9.89918 11.4294 10.1808 11.4322C10.4625 11.4351 10.7405 11.4961 10.9974 11.6115C11.2544 11.7268 11.4848 11.894 11.6741 12.1025L17.4665 17.6142L30.3479 4.29167C26.7153 1.26261 22.0606 -0.260108 17.3401 0.0364207C12.6197 0.332949 8.19209 2.4262 4.96717 5.88603C1.74225 9.34586 -0.0350366 13.9095 0.000523495 18.6391C0.0360836 23.3687 1.88179 27.9051 5.15837 31.316C8.43495 34.727 12.8935 36.7534 17.6179 36.9789C22.3423 37.2045 26.9736 35.6119 30.5602 32.5286C34.1467 29.4452 36.4162 25.1053 36.9021 20.4006C37.388 15.6959 36.0535 10.9837 33.1728 7.23242ZM24.5956 27.3053H10.979C10.4366 27.3053 9.91643 27.0898 9.53288 26.7062C9.14934 26.3227 8.93387 25.8025 8.93387 25.2601C8.93387 24.7177 9.14934 24.1975 9.53288 23.814C9.91643 23.4304 10.4366 23.2149 10.979 23.2149H24.5956C25.138 23.2149 25.6582 23.4304 26.0417 23.814C26.4253 24.1975 26.6407 24.7177 26.6407 25.2601C26.6407 25.8025 26.4253 26.3227 26.0417 26.7062C25.6582 27.0898 25.138 27.3053 24.5956 27.3053Z" fill="#0DC298"/>
</svg>
