<svg width="24" height="24" viewBox="0 0 24 24" fill="none" xmlns="http://www.w3.org/2000/svg">
<path d="M12 24C18.6274 24 24 18.6274 24 12C24 5.37258 18.6274 0 12 0C5.37258 0 0 5.37258 0 12C0 18.6274 5.37258 24 12 24Z" fill="#6DA544"/>
<path d="M11.9999 4.69556L21.913 11.9999L11.9999 19.3042L2.08691 11.9999L11.9999 4.69556Z" fill="#FFDA44"/>
<path d="M12.002 16.1738C14.3072 16.1738 16.1759 14.3051 16.1759 11.9999C16.1759 9.69476 14.3072 7.82605 12.002 7.82605C9.69684 7.82605 7.82812 9.69476 7.82812 11.9999C7.82812 14.3051 9.69684 16.1738 12.002 16.1738Z" fill="#F0F0F0"/>
<path d="M9.91276 11.7391C9.18694 11.7391 8.48649 11.8495 7.82715 12.0544C7.85635 14.3344 9.71279 16.1739 11.9997 16.1739C13.4139 16.1739 14.6628 15.47 15.4178 14.3942C14.1261 12.7771 12.1385 11.7391 9.91276 11.7391Z" fill="#0052B4"/>
<path d="M16.0952 12.7996C16.1454 12.5407 16.1726 12.2736 16.1726 11.9999C16.1726 9.69472 14.3038 7.82605 11.9987 7.82605C10.2786 7.82605 8.80209 8.86672 8.16309 10.3526C8.72793 10.2355 9.31274 10.1739 9.91176 10.1739C12.336 10.1738 14.5291 11.1815 16.0952 12.7996Z" fill="#0052B4"/>
</svg>
