<svg width="24" height="24" viewBox="0 0 24 24" fill="none" xmlns="http://www.w3.org/2000/svg">
<path d="M24.0013 12C24.0013 5.6 19.0131 0.376471 12.6602 0V12H24.0013Z" fill="white"/>
<path d="M0 12H12.6588V0C12.4235 0 12.2353 0 12 0C5.36471 0 0 5.36471 0 12ZM9.22353 10.0235L7.34118 8.70588L5.45882 10.0235L6.16471 7.90588L4.28235 6.58824H6.58824L7.29412 4.47059L8 6.58824H10.3529L8.47059 7.90588L9.22353 10.0235Z" fill="#2530A9"/>
<path d="M12.6602 24C19.0131 23.6706 24.0013 18.4 24.0013 12H12.6602V24Z" fill="#C22623"/>
<path d="M12 24C12.2353 24 12.4706 24 12.6588 24V12H0C0 18.6353 5.36471 24 12 24Z" fill="#C22623"/>
<path d="M8.04577 6.58829L7.33989 4.5177L6.63401 6.58829H4.32812L6.21048 7.90593L5.5046 10.0236L7.33989 8.70594L9.22224 10.0236L8.51636 7.90593L10.3517 6.58829H8.04577Z" fill="white"/>
</svg>
