<svg width="24" height="24" viewBox="0 0 24 24" fill="none" xmlns="http://www.w3.org/2000/svg">
<path d="M12 24C18.6274 24 24 18.6274 24 12C24 5.37258 18.6274 0 12 0C5.37258 0 0 5.37258 0 12C0 18.6274 5.37258 24 12 24Z" fill="url(#paint0_radial_13_1306)"/>
<path d="M0 12C0 14.1176 0.564706 16.1411 1.50588 17.8823H22.4941C23.4823 16.1411 24 14.1176 24 12C24 11.9529 24 11.9058 24 11.8117H0C0 11.9058 0 11.9529 0 12Z" fill="#003893"/>
<path d="M24 11.8588C23.9529 9.64705 23.3412 7.62352 22.3059 5.83528H1.69412C0.658823 7.57646 0.0470588 9.64705 0 11.8588H24Z" fill="#FFE800"/>
<path d="M11.998 24C16.5157 24 20.4215 21.5059 22.4921 17.8353H1.50391C3.57449 21.553 7.48037 24 11.998 24Z" fill="#CE1126"/>
<path d="M12.0012 0C7.62472 0 3.81296 2.35294 1.69531 5.83529H22.26C20.1894 2.35294 16.3777 0 12.0012 0Z" fill="#FFE800"/>
<defs>
<radialGradient id="paint0_radial_13_1306" cx="0" cy="0" r="1" gradientUnits="userSpaceOnUse" gradientTransform="translate(8.90936 6.73463) scale(13.5515)">
<stop stop-color="#F2F2F2"/>
<stop offset="1" stop-color="#D6D6D6"/>
</radialGradient>
</defs>
</svg>
