<svg width="24" height="24" viewBox="0 0 24 24" fill="none" xmlns="http://www.w3.org/2000/svg">
<g clip-path="url(#clip0_13_1298)">
<path d="M0 11.9765C0 17.0959 3.2 21.4638 7.76471 23.2016V0.798462C3.2 2.48926 0 6.85717 0 11.9765Z" fill="#BA0019"/>
<path d="M24.0001 11.9765C24.0001 6.85711 20.8001 2.4892 16.2354 0.751434V23.1546C20.8001 21.4638 24.0001 17.0959 24.0001 11.9765Z" fill="#BA0019"/>
<path d="M7.76465 0.798434V23.2016C9.08229 23.7182 10.5411 24 12.047 24C13.5529 24 14.9646 23.7182 16.3294 23.2016V0.798434C14.9646 0.2818 13.5058 0 11.9999 0C10.4941 0 9.08229 0.2818 7.76465 0.798434Z" fill="white"/>
</g>
<defs>
<clipPath id="clip0_13_1298">
<rect width="24" height="24" fill="white"/>
</clipPath>
</defs>
</svg>
